<svg xmlns="http://www.w3.org/2000/svg" enable-background="new 0 0 512 512" height="512" width="512" style=""><rect id="backgroundrect" width="100%" height="100%" x="0" y="0" fill="none" stroke="none"/><g class="currentLayer" style=""><title>Layer 1</title><g id="svg_1" class="selected" fill="#ffffff" fill-opacity="1"><path d="m356 179.956c30.327 0 55-24.675 55-55.005s-24.673-55.006-55-55.006-55 24.676-55 55.006 24.673 55.005 55 55.005zm0-80.011c13.785 0 25 11.218 25 25.006s-11.215 25.005-25 25.005-25-11.217-25-25.005 11.215-25.006 25-25.006z" id="svg_2" fill="#ffffff" fill-opacity="1"/><path d="m256 279.97c24.813 0 45-20.188 45-45.004s-20.187-45.004-45-45.004-45 20.188-45 45.004 20.187 45.004 45 45.004zm0-60.008c8.271 0 15 6.73 15 15.004s-6.729 15.004-15 15.004-15-6.73-15-15.004 6.729-15.004 15-15.004z" id="svg_3" fill="#ffffff" fill-opacity="1"/><ellipse cx="161" cy="159.95599365234375" rx="15" ry="15.001999855041504" id="svg_4" fill="#ffffff" fill-opacity="1"/><ellipse cx="231" cy="79.94499969482422" rx="15" ry="15.001999855041504" id="svg_5" fill="#ffffff" fill-opacity="1"/><path d="m506.821 106.896c-48.967-51.008-111.295-85.474-180.244-99.671-67.124-13.821-136.161-7.737-199.642 17.597-3.791 1.512-6.801 4.505-8.337 8.286s-1.464 8.025.198 11.752c1.463 3.282 2.205 6.69 2.205 10.129 0 13.787-11.215 25.003-25 25.003-8.393 0-16.186-4.21-20.847-11.261-2.248-3.4-5.782-5.74-9.79-6.48-4.009-.739-8.145.183-11.459 2.556-17.676 12.662-34.07 26.822-48.726 42.089-2.682 2.794-4.179 6.515-4.179 10.387v129.711c0 3.872 1.497 7.593 4.179 10.387l240 250.007c2.828 2.946 6.736 4.612 10.821 4.612s7.993-1.666 10.821-4.612l104.719-109.085c4.278-4.458 5.387-11.082 2.791-16.688-2.211-4.773-3.331-9.691-3.331-14.618 0-19.301 15.701-35.002 35-35.002 4.59 0 9.092.902 13.38 2.68 5.711 2.369 12.29.992 16.569-3.468l70.872-73.829c2.682-2.793 4.179-6.514 4.179-10.386v-129.71c0-3.871-1.497-7.592-4.179-10.386zm-446.104-9.739c9.768 8.199 22.188 12.832 35.283 12.832 30.327 0 55-24.673 55-55 0-2.349-.151-4.684-.453-6.997 113.125-39.847 237.708-13.109 324.411 69.512l-218.958 228.11-218.948-228.101c7.49-7.105 15.395-13.911 23.665-20.356zm-29.717 57.374 210 218.779v86.407l-210-218.757zm389.77 149.173c-4.829-1.134-9.768-1.706-14.77-1.706-35.841 0-65 29.158-65 64.999 0 5.843.81 11.627 2.414 17.286l-72.414 75.434v-86.407l210-218.779v86.43z" id="svg_6" fill="#ffffff" fill-opacity="1"/></g></g></svg>