<?xml version="1.0" encoding="iso-8859-1"?>
<!-- Generator: Adobe Illustrator 19.0.0, SVG Export Plug-In . SVG Version: 6.00 Build 0)  -->
<svg version="1.1" id="Capa_1" xmlns="http://www.w3.org/2000/svg" xmlns:xlink="http://www.w3.org/1999/xlink" x="0px" y="0px"
	 viewBox="0 0 472 472" style="enable-background:new 0 0 472 472;" xml:space="preserve">
<path style="fill:#5F79BA;" d="M144,412h256v48H144V412z"/>
<path style="fill:#FCF05A;" d="M32,76h400c17.673,0,32,14.327,32,32v272c0,17.673-14.327,32-32,32H32c-17.673,0-32-14.327-32-32V108
	C0,90.327,14.327,76,32,76z"/>
<g>
	<path style="fill:#FDBD40;" d="M72,108L72,108c22.091,0,40,17.909,40,40v176c0,22.091-17.909,40-40,40l0,0
		c-22.091,0-40-17.909-40-40V148C32,125.909,49.909,108,72,108z"/>
	<path style="fill:#FDBD40;" d="M144,140h240v48H144V140z"/>
	<circle style="fill:#FDBD40;" cx="208" cy="236" r="16"/>
	<circle style="fill:#FDBD40;" cx="208" cy="300" r="16"/>
	<circle style="fill:#FDBD40;" cx="208" cy="364" r="16"/>
	<circle style="fill:#FDBD40;" cx="272" cy="236" r="16"/>
	<circle style="fill:#FDBD40;" cx="272" cy="300" r="16"/>
	<circle style="fill:#FDBD40;" cx="272" cy="364" r="16"/>
	<circle style="fill:#FDBD40;" cx="336" cy="236" r="16"/>
	<circle style="fill:#FDBD40;" cx="336" cy="300" r="16"/>
	<circle style="fill:#FDBD40;" cx="336" cy="364" r="16"/>
	<path style="fill:#FDBD40;" d="M432,244c-4.418,0-8-3.582-8-8v-80c0-4.418,3.582-8,8-8s8,3.582,8,8v80
		C440,240.418,436.418,244,432,244z"/>
</g>
<path style="fill:#5F79BA;" d="M400,300h64v64h-64V300z"/>
<path style="fill:#FDBD40;" d="M464,260h-64c-4.418,0-8,3.582-8,8s3.582,8,8,8h64c4.418,0,8-3.582,8-8S468.418,260,464,260z"/>
<path style="fill:#5F79BA;" d="M144,12h256v96H144V12z"/>
<g>
	<path style="fill:#FCF05A;" d="M168,36h16v16h-16V36z"/>
	<path style="fill:#FCF05A;" d="M200,36h16v16h-16V36z"/>
	<path style="fill:#FCF05A;" d="M232,36h16v16h-16V36z"/>
</g>
<g>
</g>
<g>
</g>
<g>
</g>
<g>
</g>
<g>
</g>
<g>
</g>
<g>
</g>
<g>
</g>
<g>
</g>
<g>
</g>
<g>
</g>
<g>
</g>
<g>
</g>
<g>
</g>
<g>
</g>
</svg>
