<svg id="Capa_1" enable-background="new 0 0 512 512" height="512" viewBox="0 0 512 512" width="512" xmlns="http://www.w3.org/2000/svg"><g><path d="m183.349 236.213c-4.143 0-7.5 3.358-7.5 7.5v13.96c0 4.142 3.357 7.5 7.5 7.5 4.142 0 7.5-3.358 7.5-7.5v-13.96c0-4.142-3.358-7.5-7.5-7.5z"/><path d="m328.651 236.213c-4.142 0-7.5 3.358-7.5 7.5v13.96c0 4.142 3.358 7.5 7.5 7.5s7.5-3.358 7.5-7.5v-13.96c0-4.142-3.358-7.5-7.5-7.5z"/><path d="m280.082 251.604c-3.123-2.722-7.86-2.396-10.582.726-3.408 3.911-8.329 6.154-13.5 6.154s-10.092-2.243-13.5-6.153c-2.721-3.123-7.458-3.448-10.582-.727-3.123 2.721-3.448 7.459-.727 10.581 6.257 7.181 15.3 11.299 24.808 11.299s18.55-4.118 24.808-11.298c2.723-3.123 2.398-7.86-.725-10.582z"/><path d="m403.174 211.06c0-.001-.001-.001-.001-.002-12.35-44.338-53.451-75.304-99.954-75.304h-94.438c-46.5 0-87.598 30.961-99.951 75.294-.001.004-.002.007-.003.011-.001.002-.001.004-.002.007 0 .001 0 .001-.001.002v.002c-2.039 7.292-3.548 16.212-3.548 23.658 0 48.927 67.477 119.754 150.725 119.754 83.466 0 150.725-71.046 150.725-119.754-.001-8.457-1.563-15.527-3.552-23.668zm-194.393-60.306h94.438c36.707 0 69.469 22.504 82.612 55.722-41.449 3.279-100.465-1.285-123.617-35.643-1.395-2.064-3.724-3.3-6.214-3.3-2.491 0-4.819 1.236-6.214 3.3-23.603 34.884-81.626 38.934-123.617 35.643 13.144-33.218 45.905-55.722 82.612-55.722zm47.219 188.728c-75.451 0-135.725-64.716-135.725-104.754 0-4.34.69-9.345 1.542-13.566 45.566 3.841 103.857-.011 134.183-33.956 30.352 33.974 88.903 37.841 134.183 33.956.857 4.245 1.542 9.252 1.542 13.566 0 39.696-59.842 104.754-135.725 104.754z"/><path d="m404.684 331.445c3.113 2.732 7.852 2.423 10.584-.69 26.675-30.399 41.365-64.502 41.365-96.026 0-76.824-89.455-234.729-200.633-234.729-36.409 0-73.777 17.23-108.065 49.829-3.002 2.854-3.122 7.602-.268 10.604s7.601 3.122 10.603.268c31.447-29.898 65.241-45.701 97.73-45.701 25.964 0 77.445 10.818 130.515 83.272 32.453 44.307 55.118 100.419 55.118 136.456 0 27.479-13.719 58.873-37.64 86.133-2.732 3.114-2.422 7.852.691 10.584z"/><path d="m170.224 385.396c-5.771 3.727-12.527 9.013-19.249 16.368-27.864 30.489-33.713 72.697-33.713 102.735 0 4.142 3.358 7.5 7.5 7.5h262.476c4.143 0 7.5-3.358 7.5-7.5 0-54.422-18.333-85.907-33.712-102.735-6.73-7.364-13.494-12.654-19.27-16.382 18.262-8.365 35.577-19.376 51.357-32.823 3.152-2.687 3.53-7.42.844-10.573s-7.42-3.531-10.573-.844c-23.15 19.727-49.671 33.747-77.855 41.495-31.637 8.696-65.341 9.267-99.056 0 0 0-.001 0-.002 0-81.684-22.449-136.104-93.413-136.104-147.909 0-19.278 6.485-44.898 18.261-72.141 12.41-28.709 30.047-57.336 49.662-80.608 2.67-3.167 2.266-7.899-.901-10.568s-7.899-2.266-10.568.901c-41.403 49.124-71.454 117.429-71.454 162.417 0 55.601 46.856 119.551 114.857 150.667zm-8.799 27.176c11.055-12.348 22.252-17.956 26.837-19.889 1.667.587 3.344 1.152 5.031 1.699-17.034 30.73-31.974 67.664-33.974 102.618h-26.929c1.225-35.426 11.2-64.506 29.035-84.428zm176.212 84.428h-21.881c-2.382-33.342-14.411-65.378-29.839-94.884 6.023-.911 12.01-2.094 17.944-3.543 16.992 29.734 30.966 64.705 33.776 98.427zm-141.392 0h-21.882c3.18-35.773 16.057-67.159 33.767-98.412 5.884 1.435 11.867 2.628 17.944 3.545-14.469 27.651-28.34 63.583-29.829 94.867zm45.884-93.106c1 .07 2 .14 3.003.195l-10.939 48.149c-1.063 4.684 2.495 9.164 7.321 9.164 3.424 0 6.516-2.36 7.307-5.84l7.179-31.599 7.178 31.598c.91 4.004 4.899 6.577 8.976 5.652 4.039-.917 6.569-4.936 5.652-8.975l-10.941-48.158c1.032-.054 2.148-.116 3.011-.176 15.078 27.284 28.861 61.851 30.845 93.097h-89.441c2.007-31.622 15.81-65.489 30.849-93.107zm108.447 8.678c17.834 19.922 27.81 49.001 29.034 84.428h-26.929c-2.005-35.128-17.002-71.957-33.981-102.631 1.678-.544 3.353-1.104 5.02-1.691 4.601 1.937 15.801 7.546 26.856 19.894z"/></g></svg>