<svg version="1.1" xmlns="http://www.w3.org/2000/svg" xmlns:xlink="http://www.w3.org/1999/xlink" style="enable-background:new 0 0 512.001 512.001;" xml:space="preserve" width="512.001" height="512.001"><rect id="backgroundrect" width="100%" height="100%" x="0" y="0" fill="none" stroke="none"/>





















<g class="currentLayer" style=""><title>Layer 1</title><path style="" d="M425.42444109916687,172.033136844635 c0,108.2959976196289 -151.89999389648438,309.89898681640625 -158.3679962158203,318.4320068359375 L255.13043475151062,506.2041268348694 l-0.009999999776482582,0.009999999776482582 l-11.925999641418457,-15.758999824523926 c-6.4670000076293945,-8.543000221252441 -158.35800170898438,-210.46499633789062 -158.35800170898438,-318.4219970703125 C84.8364360332489,78.13813257217407 161.22543597221375,1.7391304969787598 255.13043475151062,1.7391304969787598 S425.42444109916687,78.13813257217407 425.42444109916687,172.033136844635 z" id="svg_1" class="" fill-opacity="1" fill="#f4c119"/><path style="" d="M425.42444109916687,170.29400634765625 c0,108.2959976196289 -151.89999389648438,309.89898681640625 -158.3679962158203,318.4320068359375 L255.13043475151062,504.4649963378906 V0 C349.0354335308075,0 425.42444109916687,76.39900207519531 425.42444109916687,170.29400634765625 z" id="svg_2" class="" opacity="1" fill-opacity="1" fill="#f4c050"/><rect x="183.50999450683594" y="482.05999755859375" style="fill:#FFAA20;" width="144.97000122070312" height="29.94099998474121" id="svg_3"/><rect x="256" y="482.05999755859375" style="fill:#FF9A00;" width="72.48999786376953" height="29.94099998474121" id="svg_4"/><path style="" d="M364.606,167.001c0,59.892-48.714,108.616-108.606,108.616s-108.606-48.724-108.606-108.616  c0-59.882,48.714-108.606,108.606-108.606S364.606,107.119,364.606,167.001z" id="svg_5" class="" fill="#fcb8b8" fill-opacity="1"/><path style="" d="M364.606,167.001c0,59.892-48.714,108.616-108.606,108.616V58.395  C315.892,58.395,364.606,107.119,364.606,167.001z" id="svg_6" class="" fill="#ecabab" fill-opacity="1"/><g id="svg_7">
</g><g id="svg_8">
</g><g id="svg_9">
</g><g id="svg_10">
</g><g id="svg_11">
</g><g id="svg_12">
</g><g id="svg_13">
</g><g id="svg_14">
</g><g id="svg_15">
</g><g id="svg_16">
</g><g id="svg_17">
</g><g id="svg_18">
</g><g id="svg_19">
</g><g id="svg_20">
</g><g id="svg_21">
</g></g></svg>