<svg version="1.1" xmlns="http://www.w3.org/2000/svg" xmlns:xlink="http://www.w3.org/1999/xlink" style="enable-background:new 0 0 512 512;" xml:space="preserve" width="512" height="512"><rect id="backgroundrect" width="100%" height="100%" x="0" y="0" fill="none" stroke="none"/>






























<g class="currentLayer" style=""><title>Layer 1</title><rect x="181.08399963378906" y="90.0469970703125" style="fill:#994C0F;" width="149.96099853515625" height="119.96900177001953" id="svg_1"/><rect x="256.0639953613281" y="90.0469970703125" style="fill:#713708;" width="74.98100280761719" height="119.96900177001953" id="svg_2" class=""/><path style="" d="M470.011,481.941H42.123l87.976-233.84c15.296-40.789,54.887-68.081,98.375-68.081h55.185  c43.489,0,83.079,27.292,98.375,68.081L470.011,481.941z" id="svg_3" class="" fill-opacity="1" fill="#f4c119"/><path style="" d="M470.011,481.941H256.067V180.02h27.592c43.489,0,83.079,27.292,98.375,68.081L470.011,481.941z" id="svg_4" class="" fill-opacity="1" fill="#f4c119"/><path style="fill:#CAE8F9;" d="M256.067,240.004c-41.389,0-74.981,33.591-74.981,74.98s33.591,74.981,74.981,74.981  s74.981-33.591,74.981-74.981S297.457,240.004,256.067,240.004z" id="svg_5"/><path style="fill:#B7E0F6;" d="M331.048,314.985c0,41.389-33.591,74.981-74.981,74.981V240.004  C297.457,240.004,331.048,273.595,331.048,314.985z" id="svg_6"/><path style="fill:#994C0F;" d="M256.067,269.996c-24.894,0-44.988,20.094-44.988,44.988c0,24.893,20.094,44.988,44.988,44.988  s44.988-20.096,44.988-44.988C301.056,290.091,280.961,269.996,256.067,269.996z" id="svg_7" class=""/><path style="fill:#713708;" d="M301.056,314.985c0,24.893-20.094,44.988-44.988,44.988v-89.977  C280.961,269.996,301.056,290.091,301.056,314.985z" id="svg_8"/><path style="fill:#CAE8F9;" d="M271.063,314.985c0,8.397-6.597,14.996-14.996,14.996c-8.399,0-14.996-6.599-14.996-14.996  c0-8.399,6.597-14.996,14.996-14.996C264.466,299.989,271.063,306.586,271.063,314.985z" id="svg_9"/><g id="svg_10" class="">
	<path style="fill:#B7E0F6;" d="M482.009,481.941c0,16.496-13.497,29.992-29.992,29.992H60.118   c-16.496,0-29.992-13.496-29.992-29.992s13.496-29.992,29.992-29.992h391.898C468.511,451.949,482.009,465.447,482.009,481.941z" id="svg_11"/>
	<path style="fill:#B7E0F6;" d="M271.063,314.985c0,8.397-6.597,14.996-14.996,14.996v-29.992   C264.466,299.989,271.063,306.586,271.063,314.985z" id="svg_12"/>
</g><path style="fill:#A4D9F5;" d="M482.009,481.941c0,16.496-13.497,29.992-29.992,29.992H256.067v-59.984h195.949  C468.511,451.949,482.009,465.447,482.009,481.941z" id="svg_13"/><path style="" d="M506.302001953125,119.16543841362 l-24.895000457763672,29.992000579833984 h-96.0739974975586 l-23.993999481201172,-20.395000457763672 c-0.9010000228881836,-7.199999809265137 -7.498000144958496,-9.597999572753906 -14.996000289916992,-9.597999572753906 H166.39100646972656 c-7.797999858856201,0 -14.097000122070312,2.3980000019073486 -14.996000289916992,9.597999572753906 l-23.993999481201172,20.395000457763672 H30.72599983215332 L5.830999851226807,119.16543841362 C24.427000045776367,50.183436155319214 88.11100006103516,-0.8035652488470078 163.0919952392578,-0.8035652488470078 h185.65199279785156 C423.7250061035156,-0.8035652488470078 487.4070129394531,50.18443560600281 506.302001953125,119.16543841362 z" id="svg_14" class="" fill-opacity="1" fill="#f4c050"/><path style="" d="M506.302,120.035l-24.895,29.992h-96.074l-23.994-20.395c-0.901-7.2-7.498-9.598-14.996-9.598  h-90.277V0.066h92.677C423.725,0.066,487.407,51.054,506.302,120.035z" id="svg_15" class="" fill-opacity="1" fill="#f4c050" opacity="1"/><path style="" d="M506.221,120.035H346.307c7.674,0,14.015,2.27,14.893,9.709c-5.764,20.068-5.624,19.576-8.626,30.021  c-3.679,25.021,13.406,50.246,44.505,50.246h69.727c26.805,0,45.193-15.646,45.193-47.713  C512.001,150.304,510.182,134.672,506.221,120.035z" id="svg_16" class="" fill-opacity="1" fill="#f4c010"/><path style="" d="M166.354,120.035H5.738c-3.987,14.822-5.784,30.475-5.738,42.88  c0.123,30.322,21.094,47.097,45.032,47.097h60.354c39.024,0,62.944-22.424,51.994-59.984l-5.921-20.312  C152.354,122.291,158.695,120.035,166.354,120.035z" id="svg_17" class="" fill-opacity="1" fill="#f4c010"/><g id="svg_18">
</g><g id="svg_19">
</g><g id="svg_20">
</g><g id="svg_21">
</g><g id="svg_22">
</g><g id="svg_23">
</g><g id="svg_24">
</g><g id="svg_25">
</g><g id="svg_26">
</g><g id="svg_27">
</g><g id="svg_28">
</g><g id="svg_29">
</g><g id="svg_30">
</g><g id="svg_31">
</g><g id="svg_32">
</g></g></svg>